<mxfile host="app.diagrams.net" agent="Mozilla/5.0 (Windows NT 10.0; Win64; x64) AppleWebKit/537.36 (KHTML, like Gecko) Chrome/134.0.0.0 Safari/537.36" version="26.2.13">
  <diagram name="Trang-1" id="QbQxUjktQBV_Fff3xoXe">
    <mxGraphModel dx="1526" dy="733" grid="0" gridSize="10" guides="1" tooltips="1" connect="1" arrows="1" fold="1" page="1" pageScale="1" pageWidth="1169" pageHeight="1654" math="0" shadow="0">
      <root>
        <mxCell id="0" />
        <mxCell id="1" parent="0" />
        <mxCell id="YhrRErGeQZMQVSuotU4v-4" value="" style="edgeStyle=orthogonalEdgeStyle;rounded=0;orthogonalLoop=1;jettySize=auto;html=1;" edge="1" parent="1" source="YhrRErGeQZMQVSuotU4v-2" target="YhrRErGeQZMQVSuotU4v-3">
          <mxGeometry relative="1" as="geometry" />
        </mxCell>
        <mxCell id="YhrRErGeQZMQVSuotU4v-2" value="BẮT ĐẦU" style="ellipse;whiteSpace=wrap;html=1;" vertex="1" parent="1">
          <mxGeometry x="420" y="30" width="120" height="80" as="geometry" />
        </mxCell>
        <mxCell id="YhrRErGeQZMQVSuotU4v-6" value="" style="edgeStyle=orthogonalEdgeStyle;rounded=0;orthogonalLoop=1;jettySize=auto;html=1;" edge="1" parent="1" source="YhrRErGeQZMQVSuotU4v-3" target="YhrRErGeQZMQVSuotU4v-5">
          <mxGeometry relative="1" as="geometry" />
        </mxCell>
        <mxCell id="YhrRErGeQZMQVSuotU4v-3" value="KHAI BÁO THƯ VIỆN, BIẾN SỬ DỤNG" style="whiteSpace=wrap;html=1;" vertex="1" parent="1">
          <mxGeometry x="420" y="160" width="120" height="60" as="geometry" />
        </mxCell>
        <mxCell id="YhrRErGeQZMQVSuotU4v-8" value="" style="edgeStyle=orthogonalEdgeStyle;rounded=0;orthogonalLoop=1;jettySize=auto;html=1;" edge="1" parent="1" source="YhrRErGeQZMQVSuotU4v-5" target="YhrRErGeQZMQVSuotU4v-7">
          <mxGeometry relative="1" as="geometry" />
        </mxCell>
        <mxCell id="YhrRErGeQZMQVSuotU4v-5" value="ĐỌC THỜI GIAN MỖI GIÂY" style="whiteSpace=wrap;html=1;" vertex="1" parent="1">
          <mxGeometry x="420" y="260" width="120" height="60" as="geometry" />
        </mxCell>
        <mxCell id="YhrRErGeQZMQVSuotU4v-10" value="" style="edgeStyle=orthogonalEdgeStyle;rounded=0;orthogonalLoop=1;jettySize=auto;html=1;" edge="1" parent="1" source="YhrRErGeQZMQVSuotU4v-7" target="YhrRErGeQZMQVSuotU4v-9">
          <mxGeometry relative="1" as="geometry" />
        </mxCell>
        <mxCell id="YhrRErGeQZMQVSuotU4v-7" value="HIỂN THỊ THỜI GIAN" style="whiteSpace=wrap;html=1;" vertex="1" parent="1">
          <mxGeometry x="420" y="350" width="120" height="60" as="geometry" />
        </mxCell>
        <mxCell id="YhrRErGeQZMQVSuotU4v-12" value="" style="edgeStyle=orthogonalEdgeStyle;rounded=0;orthogonalLoop=1;jettySize=auto;html=1;" edge="1" parent="1" source="YhrRErGeQZMQVSuotU4v-9" target="YhrRErGeQZMQVSuotU4v-11">
          <mxGeometry relative="1" as="geometry" />
        </mxCell>
        <mxCell id="YhrRErGeQZMQVSuotU4v-18" value="YES" style="edgeLabel;html=1;align=center;verticalAlign=middle;resizable=0;points=[];" vertex="1" connectable="0" parent="YhrRErGeQZMQVSuotU4v-12">
          <mxGeometry x="-0.68" y="2" relative="1" as="geometry">
            <mxPoint x="-2" y="14" as="offset" />
          </mxGeometry>
        </mxCell>
        <mxCell id="YhrRErGeQZMQVSuotU4v-9" value="Kiểm tra khoảng cách?&lt;div&gt;(&amp;lt;30cm)&lt;/div&gt;" style="rhombus;whiteSpace=wrap;html=1;" vertex="1" parent="1">
          <mxGeometry x="390" y="440" width="180" height="80" as="geometry" />
        </mxCell>
        <mxCell id="YhrRErGeQZMQVSuotU4v-16" value="" style="edgeStyle=orthogonalEdgeStyle;rounded=0;orthogonalLoop=1;jettySize=auto;html=1;" edge="1" parent="1" source="YhrRErGeQZMQVSuotU4v-11" target="YhrRErGeQZMQVSuotU4v-15">
          <mxGeometry relative="1" as="geometry" />
        </mxCell>
        <mxCell id="YhrRErGeQZMQVSuotU4v-19" value="YES" style="edgeLabel;html=1;align=center;verticalAlign=middle;resizable=0;points=[];" vertex="1" connectable="0" parent="YhrRErGeQZMQVSuotU4v-16">
          <mxGeometry x="-0.3333" relative="1" as="geometry">
            <mxPoint as="offset" />
          </mxGeometry>
        </mxCell>
        <mxCell id="YhrRErGeQZMQVSuotU4v-11" value="Kiểm tra chuyển động&lt;div&gt;(&amp;gt;6 lần liên tiếp)&lt;/div&gt;" style="rhombus;whiteSpace=wrap;html=1;" vertex="1" parent="1">
          <mxGeometry x="390" y="560" width="180" height="80" as="geometry" />
        </mxCell>
        <mxCell id="YhrRErGeQZMQVSuotU4v-15" value="Thực hiện cảnh báo" style="whiteSpace=wrap;html=1;" vertex="1" parent="1">
          <mxGeometry x="420" y="700" width="120" height="60" as="geometry" />
        </mxCell>
        <mxCell id="YhrRErGeQZMQVSuotU4v-20" value="" style="endArrow=classic;html=1;rounded=0;exitX=1;exitY=0.5;exitDx=0;exitDy=0;" edge="1" parent="1" source="YhrRErGeQZMQVSuotU4v-11">
          <mxGeometry width="50" height="50" relative="1" as="geometry">
            <mxPoint x="580" y="530" as="sourcePoint" />
            <mxPoint x="480" y="240" as="targetPoint" />
            <Array as="points">
              <mxPoint x="680" y="600" />
              <mxPoint x="680" y="240" />
            </Array>
          </mxGeometry>
        </mxCell>
        <mxCell id="YhrRErGeQZMQVSuotU4v-23" value="NO" style="edgeLabel;html=1;align=center;verticalAlign=middle;resizable=0;points=[];" vertex="1" connectable="0" parent="YhrRErGeQZMQVSuotU4v-20">
          <mxGeometry x="-0.8744" y="-1" relative="1" as="geometry">
            <mxPoint as="offset" />
          </mxGeometry>
        </mxCell>
        <mxCell id="YhrRErGeQZMQVSuotU4v-21" value="" style="endArrow=classic;html=1;rounded=0;exitX=1;exitY=0.5;exitDx=0;exitDy=0;" edge="1" parent="1" source="YhrRErGeQZMQVSuotU4v-9">
          <mxGeometry width="50" height="50" relative="1" as="geometry">
            <mxPoint x="520" y="430" as="sourcePoint" />
            <mxPoint x="680" y="480" as="targetPoint" />
          </mxGeometry>
        </mxCell>
        <mxCell id="YhrRErGeQZMQVSuotU4v-22" value="NO" style="edgeLabel;html=1;align=center;verticalAlign=middle;resizable=0;points=[];" vertex="1" connectable="0" parent="YhrRErGeQZMQVSuotU4v-21">
          <mxGeometry x="-0.2" y="2" relative="1" as="geometry">
            <mxPoint as="offset" />
          </mxGeometry>
        </mxCell>
      </root>
    </mxGraphModel>
  </diagram>
</mxfile>
